<svg width="20" height="21" viewBox="0 0 20 21" fill="none" xmlns="http://www.w3.org/2000/svg">
<g clip-path="url(#clip0_5503_35773)">
<path d="M10 20.4043C9.52063 20.4043 9.07605 20.0967 8.67867 19.4899C8.24309 18.8248 7.31117 18.5752 6.60148 18.9333C5.9816 19.2461 5.44941 19.2788 5.01949 19.0306C4.58969 18.7825 4.35195 18.3052 4.31289 17.6121C4.26816 16.8183 3.58602 16.1361 2.79223 16.0914C2.09906 16.0524 1.62176 15.8146 1.37355 15.3848C1.12539 14.9549 1.15812 14.4227 1.47094 13.8029C1.8291 13.093 1.57941 12.1612 0.914297 11.7256C0.307617 11.3282 0 10.8837 0 10.4043C0 9.92492 0.307617 9.48035 0.914375 9.08297C1.57941 8.64738 1.8291 7.71551 1.47094 7.0057C1.1582 6.38594 1.12543 5.85375 1.37355 5.42387C1.6218 4.99395 2.09914 4.75617 2.7923 4.71715C3.58602 4.67242 4.26816 3.99031 4.31289 3.19656C4.35191 2.5034 4.58965 2.02609 5.01953 1.77789C5.44938 1.52965 5.98164 1.56238 6.60152 1.87523C7.31129 2.2334 8.24312 1.98371 8.67883 1.31859C9.07613 0.711914 9.52066 0.404297 10 0.404297C10.4793 0.404297 10.9239 0.711914 11.3212 1.31855C11.7569 1.98371 12.6888 2.23336 13.3985 1.8752C14.0184 1.56238 14.5506 1.52965 14.9805 1.77785C15.4104 2.02605 15.6481 2.5034 15.6871 3.19656C15.7319 3.99027 16.414 4.67242 17.2077 4.71715C17.9009 4.75617 18.3782 4.99391 18.6264 5.42379C18.8746 5.85371 18.8418 6.3859 18.5291 7.0057C18.1709 7.71551 18.4205 8.64738 19.0856 9.08297C19.6924 9.48035 20 9.92492 20 10.4043C20 10.8837 19.6924 11.3282 19.0857 11.7255C18.4206 12.1612 18.1709 13.093 18.5291 13.8029C18.8418 14.4227 18.8746 14.9549 18.6264 15.3848C18.3782 15.8146 17.9009 16.0524 17.2078 16.0914C16.414 16.1361 15.7318 16.8183 15.6871 17.6121C15.648 18.3052 15.4103 18.7825 14.9804 19.0307C14.5506 19.2789 14.0183 19.2461 13.3985 18.9334C12.6887 18.5752 11.7568 18.8249 11.3213 19.49C10.9239 20.0967 10.4794 20.4043 10 20.4043ZM9.65902 18.8479C9.83934 19.1232 9.95996 19.2055 10 19.2271C10.0401 19.2055 10.1607 19.1232 10.341 18.8479C11.1056 17.6804 12.6806 17.2585 13.9265 17.8871C14.2295 18.0401 14.3748 18.0272 14.3945 18.0158C14.4143 18.0044 14.498 17.8851 14.5171 17.5462C14.5956 16.1528 15.7485 14.9998 17.1419 14.9214C17.4809 14.9023 17.6002 14.8186 17.6116 14.7988C17.623 14.7791 17.6358 14.6339 17.4829 14.3308C16.8542 13.0848 17.2762 11.5099 18.4437 10.7452C18.7189 10.5649 18.8013 10.4444 18.8229 10.4043C18.8013 10.3642 18.7189 10.2436 18.4436 10.0633C17.2762 9.29867 16.8542 7.72371 17.4829 6.47773C17.6359 6.17469 17.623 6.02945 17.6116 6.00973C17.6003 5.99008 17.4809 5.90625 17.1419 5.88715C15.7486 5.80867 14.5957 4.65578 14.5172 3.26246C14.4981 2.92348 14.4143 2.80406 14.3946 2.7927C14.3749 2.78129 14.2296 2.76844 13.9266 2.92141C12.6764 3.55227 11.1031 3.12418 10.341 1.96062C10.1607 1.68539 10.0402 1.60305 10.0001 1.58145C9.96 1.60305 9.83945 1.68535 9.65918 1.96059C8.89449 3.12805 7.31957 3.55012 6.07359 2.92137C5.77043 2.76836 5.62523 2.78129 5.60559 2.79266C5.58586 2.80406 5.50203 2.92344 5.48293 3.26242C5.40445 4.65574 4.25156 5.80867 2.85824 5.88711C2.51926 5.90621 2.39984 5.99004 2.38848 6.00977C2.37715 6.02941 2.36426 6.17465 2.51719 6.4777C3.14594 7.72367 2.72391 9.29863 1.55648 10.0633C1.28113 10.2436 1.19883 10.3642 1.17727 10.4043C1.19883 10.4443 1.28113 10.5649 1.55645 10.7452C2.72391 11.5098 3.14594 13.0848 2.51723 14.3308C2.36426 14.6339 2.37715 14.7791 2.38852 14.7988C2.39988 14.8185 2.51922 14.9023 2.85816 14.9214C4.25152 14.9998 5.40449 16.1528 5.48297 17.5462C5.50207 17.8851 5.58578 18.0044 5.60551 18.0158C5.62531 18.0272 5.77051 18.0401 6.07359 17.8871C7.32367 17.2563 8.89691 17.6843 9.65902 18.8479Z" fill="white"/>
<path d="M7.65625 8.64648C6.68699 8.64648 5.89844 7.85793 5.89844 6.88867C5.89844 5.91941 6.68699 5.13086 7.65625 5.13086C8.62551 5.13086 9.41406 5.91941 9.41406 6.88867C9.41406 7.85793 8.62551 8.64648 7.65625 8.64648ZM7.65625 6.30273C7.33316 6.30273 7.07031 6.56559 7.07031 6.88867C7.07031 7.21176 7.33316 7.47461 7.65625 7.47461C7.97934 7.47461 8.24219 7.21176 8.24219 6.88867C8.24219 6.56559 7.97934 6.30273 7.65625 6.30273Z" fill="white"/>
<path d="M12.3438 15.6777C11.3745 15.6777 10.5859 14.8892 10.5859 13.9199C10.5859 12.9507 11.3745 12.1621 12.3438 12.1621C13.313 12.1621 14.1016 12.9507 14.1016 13.9199C14.1016 14.8892 13.313 15.6777 12.3438 15.6777ZM12.3438 13.334C12.0207 13.334 11.7578 13.5968 11.7578 13.9199C11.7578 14.243 12.0207 14.5059 12.3438 14.5059C12.6668 14.5059 12.9297 14.243 12.9297 13.9199C12.9297 13.5968 12.6668 13.334 12.3438 13.334Z" fill="white"/>
<path d="M6.01562 14.7402L13.0469 5.36523L13.9844 6.06836L6.95313 15.4434L6.01562 14.7402Z" fill="white"/>
</g>
<defs>
<clipPath id="clip0_5503_35773">
<rect width="20" height="20" fill="white" transform="translate(0 0.404297)"/>
</clipPath>
</defs>
</svg>
