<svg width="24" height="24" viewBox="0 0 24 24" fill="none" xmlns="http://www.w3.org/2000/svg">
<g clip-path="url(#clip0_5503_35837)">
<path fill-rule="evenodd" clip-rule="evenodd" d="M11.9618 0.363281C14.1252 0.387969 16.0797 0.919677 17.8252 1.9584C19.5498 2.9764 20.9845 4.41982 21.9919 6.15065C23.0243 7.90663 23.5528 9.87293 23.5774 12.0495C23.5161 15.0277 22.5768 17.5713 20.7595 19.6804C18.9421 21.7895 16.6145 23.0943 14.2051 23.5945V15.2447H16.483L16.9982 11.9635H13.5488V9.81436C13.5297 9.36883 13.6706 8.93115 13.946 8.58046C14.2219 8.22881 14.7077 8.04399 15.4033 8.02599H17.4863V5.15169C17.4564 5.14207 17.1728 5.10405 16.6355 5.03761C16.0262 4.96632 15.4134 4.92824 14.7999 4.92354C13.4114 4.92995 12.3132 5.32162 11.5055 6.09857C10.6977 6.8753 10.2851 7.99907 10.2676 9.46986V11.9635H7.64258V15.2447H10.2676V23.5945C7.30906 23.0943 4.98148 21.7895 3.16414 19.6804C1.34679 17.5713 0.407513 15.0277 0.346191 12.0495C0.370726 9.87283 0.89922 7.90653 1.93167 6.15065C2.93915 4.41982 4.37381 2.9764 6.09847 1.9584C7.84389 0.919877 9.79833 0.388169 11.9618 0.363281Z" fill="#262254"/>
</g>
<defs>
<clipPath id="clip0_5503_35837">
<rect width="24" height="24" fill="white"/>
</clipPath>
</defs>
</svg>
