<svg width="29" height="29" viewBox="0 0 29 29" fill="none" xmlns="http://www.w3.org/2000/svg">
<path d="M14.6362 0.232422C6.90419 0.232422 0.636719 6.50108 0.636719 14.2319C0.636719 21.964 6.90419 28.2315 14.6362 28.2315C22.3671 28.2315 28.6358 21.9628 28.6358 14.2319C28.6358 6.50108 22.3671 0.232422 14.6362 0.232422ZM11.2066 17.9912C11.2066 18.7478 10.5935 19.3598 9.8381 19.3598C9.0815 19.3598 8.46957 18.7478 8.46957 17.9912V12.1566C8.46957 11.4 9.0815 10.7869 9.8381 10.7869C10.5935 10.7869 11.2066 11.4 11.2066 12.1566V17.9912ZM20.8741 17.8928C20.8741 18.9625 20.2491 19.3455 19.1794 19.3455H14.2579C13.1883 19.3455 12.3214 18.4786 12.3214 17.409V12.5681C12.3214 12.5681 12.2253 11.7629 13.1171 11.0063C13.6211 10.5782 14.3694 9.76111 14.8924 8.7697C15.9312 6.79992 16.5527 6.22595 17.0258 6.38012C18.7786 6.94816 17.9022 9.54646 17.3365 10.6316H18.9375C20.006 10.6316 20.8741 11.4984 20.8741 12.5681V17.8928Z" fill="#543883"/>
</svg>
