<svg width="24" height="24" viewBox="0 0 24 24" fill="none" xmlns="http://www.w3.org/2000/svg">
<g clip-path="url(#clip0_5503_35833)">
<path fill-rule="evenodd" clip-rule="evenodd" d="M11.9999 9.37521C13.6227 9.37521 14.9382 10.6704 14.9382 12.2681C14.9382 13.8655 13.6227 15.1607 11.9999 15.1607C10.3771 15.1607 9.06156 13.8655 9.06156 12.2681C9.06156 10.6704 10.3771 9.37521 11.9999 9.37521ZM11.9999 8.21844C9.72798 8.21844 7.88622 10.0315 7.88622 12.2681C7.88622 14.5044 9.72798 16.3177 11.9999 16.3177C14.2718 16.3177 16.1136 14.5044 16.1136 12.2681C16.1136 10.0315 14.2718 8.21844 11.9999 8.21844ZM16.2406 7.24496C16.0125 7.24853 15.7906 7.31943 15.6027 7.44875C15.4148 7.57806 15.2693 7.76003 15.1844 7.97178C15.0996 8.18354 15.0793 8.41563 15.126 8.63891C15.1727 8.86219 15.2843 9.06669 15.4469 9.22672C15.6094 9.38675 15.8156 9.49516 16.0396 9.53835C16.2636 9.58154 16.4954 9.55757 16.7058 9.46945C16.9162 9.38133 17.0958 9.233 17.2222 9.04309C17.3485 8.85318 17.4159 8.63016 17.4159 8.40205C17.4135 8.09276 17.2883 7.79711 17.0679 7.58012C16.8475 7.36313 16.5499 7.24257 16.2406 7.24496ZM9.12846 5.98565H14.8713C16.7396 5.98565 18.2542 7.47664 18.2542 9.31561V15.2203C18.2542 17.0596 16.7396 18.5502 14.8713 18.5502H9.12846C7.26018 18.5502 5.74563 17.0596 5.74563 15.2203V9.31561C5.74563 7.47664 7.26016 5.98565 9.12846 5.98565ZM8.58683 4.83401C6.36613 4.83401 4.56589 6.60635 4.56589 8.79234V15.7435C4.56589 17.9299 6.36611 19.7019 8.58683 19.7019H15.413C17.6337 19.7019 19.4339 17.9299 19.4339 15.7435V8.79234C19.4339 6.60634 17.6337 4.83401 15.413 4.83401H8.58683ZM11.9999 0.652344C18.415 0.652344 23.6155 5.85266 23.6155 12.2681C23.6155 18.6832 18.4151 23.8835 11.9999 23.8835C5.58475 23.8835 0.384277 18.6832 0.384277 12.2681C0.384277 5.85267 5.58475 0.652344 11.9999 0.652344Z" fill="#262254"/>
</g>
<defs>
<clipPath id="clip0_5503_35833">
<rect width="24" height="24" fill="white"/>
</clipPath>
</defs>
</svg>
