<svg width="24" height="24" viewBox="0 0 24 24" fill="none" xmlns="http://www.w3.org/2000/svg">
<path fill-rule="evenodd" clip-rule="evenodd" d="M12.0289 0.652344C5.59828 0.652344 0.384277 5.83377 0.384277 12.2681C0.384277 18.6451 5.59828 23.8835 12.0289 23.8835C18.4595 23.8835 23.6155 18.6451 23.6155 12.2681C23.6155 5.83377 18.4595 0.652344 12.0289 0.652344ZM9.1322 17.9049H6.1776V7.7128H9.1322V17.9049ZM7.7418 7.08635C6.98867 7.08635 6.40934 6.51694 6.40934 5.72001C6.40934 4.97981 6.98867 4.35336 7.7418 4.35336C8.49493 4.4104 9.1322 4.97981 9.1322 5.72001C9.1322 6.51694 8.49493 7.08635 7.7418 7.08635ZM19.2705 17.9049H16.3739V11.5846C16.3739 10.8444 16.1421 10.332 15.2731 10.332C13.7669 10.332 13.4772 11.5846 13.4772 11.5846V17.9049H10.5805V7.7128H13.4772V8.68083C13.8827 8.39596 14.9255 7.7128 16.3739 7.7128C17.3008 7.7128 19.2705 8.28221 19.2705 11.6987L19.2705 17.9049Z" fill="#262254"/>
</svg>
