<svg width="24" height="24" viewBox="0 0 24 24" fill="none" xmlns="http://www.w3.org/2000/svg">
<g clip-path="url(#clip0_5503_35841)">
<path fill-rule="evenodd" clip-rule="evenodd" d="M11.9315 0.376953C5.52253 0.376953 0.315918 5.58369 0.315918 11.9927C0.315918 18.4017 5.52254 23.6081 11.9315 23.6081C18.3405 23.6081 23.5472 18.4017 23.5472 11.9927C23.5472 5.58368 18.3406 0.376953 11.9315 0.376953ZM18.885 15.7472C18.8056 15.9401 18.4313 16.2122 17.1155 16.4166C17.002 16.439 16.968 16.5752 16.8999 16.8704C16.8788 16.9775 16.8523 17.0835 16.8205 17.1879C16.7865 17.2898 16.7298 17.3353 16.6277 17.3353H16.6163C16.5165 17.333 16.4173 17.3177 16.3214 17.2898C16.0593 17.242 15.7938 17.2156 15.5274 17.2107C15.3374 17.2093 15.1476 17.2244 14.9602 17.2558C14.5632 17.3241 14.2342 17.5622 13.8712 17.8118C13.3608 18.1748 12.8277 18.5491 11.9996 18.5491H11.8181C10.99 18.5491 10.4569 18.1748 9.94645 17.8118C9.59481 17.5622 9.25451 17.3241 8.85749 17.2558C8.67009 17.2244 8.48032 17.2093 8.2903 17.2107C8.02332 17.2153 7.75741 17.2457 7.49626 17.3013C7.39946 17.325 7.30076 17.3401 7.2013 17.3465C7.15506 17.3516 7.10858 17.3393 7.07086 17.3121C7.03315 17.2849 7.00688 17.2446 6.99715 17.1991C6.9631 17.0857 6.94043 16.9723 6.91772 16.8704C6.861 16.598 6.81566 16.4391 6.70223 16.4166C5.38636 16.2122 5.01206 15.9401 4.93263 15.7472C4.91979 15.7186 4.91212 15.6879 4.90996 15.6566C4.90919 15.621 4.92145 15.5864 4.94443 15.5592C4.96741 15.5321 4.99953 15.5143 5.03473 15.5092C7.05386 15.1688 7.96133 13.1043 7.99535 13.0136H8.00673C8.13149 12.764 8.15416 12.5371 8.07478 12.367C7.93863 12.0379 7.4849 11.8905 7.18998 11.7998C7.12082 11.7805 7.05268 11.7577 6.98582 11.7315C6.3846 11.4934 6.33922 11.2554 6.36192 11.1304C6.40726 10.9151 6.67951 10.7673 6.91771 10.7673C6.97256 10.7666 7.02687 10.7783 7.07653 10.8016C7.34878 10.9263 7.58699 10.9942 7.79117 10.9942C8.0861 10.9942 8.21086 10.8696 8.2222 10.8583C8.2222 10.7222 8.21086 10.5748 8.19953 10.427C8.14281 9.47439 8.06342 8.28334 8.36968 7.60273C9.27715 5.57214 11.1942 5.41352 11.7614 5.41352H12.045C12.6121 5.41352 14.5405 5.57214 15.448 7.60273C15.7542 8.28335 15.6748 9.47439 15.6181 10.427V10.4725C15.6068 10.5972 15.5954 10.7334 15.5954 10.8583C15.6068 10.8696 15.7202 10.983 15.9811 10.9942C16.1853 10.983 16.4122 10.9151 16.6617 10.8016C16.7298 10.7724 16.8031 10.7569 16.8772 10.7561C16.9598 10.7575 17.0411 10.7768 17.1154 10.8128H17.1268C17.3196 10.8808 17.4557 11.0285 17.4557 11.1759C17.4671 11.3121 17.3536 11.5274 16.8318 11.7315C16.7751 11.7543 16.7071 11.777 16.639 11.7998C16.3327 11.8905 15.879 12.0379 15.7429 12.367C15.6635 12.5371 15.6862 12.764 15.8109 13.0136H15.8223C15.8563 13.1043 16.7638 15.1689 18.7829 15.5092C18.8181 15.5143 18.8502 15.5321 18.8732 15.5592C18.8962 15.5864 18.9085 15.621 18.9077 15.6566C18.9055 15.6879 18.8979 15.7186 18.885 15.7472Z" fill="#262254"/>
</g>
<defs>
<clipPath id="clip0_5503_35841">
<rect width="24" height="24" fill="white"/>
</clipPath>
</defs>
</svg>
